<?xml version="1.0" encoding="UTF-8" standalone="no"?><!DOCTYPE svg PUBLIC "-//W3C//DTD SVG 1.1//EN" "http://www.w3.org/Graphics/SVG/1.1/DTD/svg11.dtd"><svg width="100%" height="100%" viewBox="0 0 112 185" version="1.1" xmlns="http://www.w3.org/2000/svg" xmlns:xlink="http://www.w3.org/1999/xlink" xml:space="preserve" xmlns:serif="http://www.serif.com/" style="fill-rule:evenodd;clip-rule:evenodd;stroke-linejoin:round;stroke-miterlimit:2;"><g><g><path d="M59.4,0l5.111,0c4.005,0.239 7.989,0.745 11.926,1.515c1.242,0.158 2.467,0.433 3.658,0.821c0.005,0 0.1,0.048 0.126,0.06c1.728,0.847 3.272,2.026 4.544,3.47c0.277,0.272 0.53,0.567 0.757,0.883c0.789,1.9 0.943,4.006 0.437,6c0.165,0.479 0.557,0.622 0.763,1.006c0.445,1.208 0.783,2.454 1.011,3.721c0.466,1.571 1.756,2.843 1.952,4.609c0.055,0.777 0.055,1.557 0,2.334c-0.101,0.498 -0.143,1.007 -0.126,1.515c0.135,0.72 1.767,2.115 2.271,2.65c1.611,1.709 2.934,3.668 3.917,5.8c0.623,1.085 1.09,2.254 1.385,3.47c0.464,3.081 -2.057,3.7 -4.734,3.851c-0.469,0.889 -0.624,1.912 -0.439,2.9c0.135,0.743 0.73,1.327 0.632,1.952c-0.123,0.763 -1.071,0.87 -1.581,1.392c0.2,0.535 1.077,0.808 1.071,1.639c0,0.406 -0.419,0.813 -0.627,1.2c-0.264,0.37 -0.477,0.773 -0.632,1.2c-0.163,1.024 0.382,1.852 0.442,2.775c0.09,1.33 -0.459,3.368 -1.2,3.975c-1.407,1.156 -3.327,0.905 -5.111,1.831c0.151,0.311 0.23,0.653 0.23,0.999c0,0.904 -0.536,1.726 -1.362,2.092c1.029,0.297 1.991,0.789 2.835,1.448c0.39,0.305 0.73,0.668 1.009,1.077c0.627,1.061 0.71,2.4 1.327,3.465c0.509,0.9 1.382,1.59 1.955,2.4c0.627,0.88 1.149,1.709 1.7,2.587c1.18,0.61 2.214,1.471 3.028,2.521c0.744,0.907 1.145,2.046 1.134,3.219c-0.02,0.755 -0.228,1.609 -0.316,2.462c-0.161,0.83 -0.225,1.676 -0.191,2.521c0.058,0.326 0.392,0.647 0.573,1.011c0.181,0.364 0.286,0.78 0.439,1.074c0.326,0.607 0.948,1.094 0.763,1.955c-0.562,-0.105 -1.012,0.168 -1.453,0.063c-0.263,-0.06 -0.322,-0.289 -0.569,-0.439c-0.247,-0.15 -0.525,-0.208 -0.7,-0.316c-0.66,-0.429 -1.068,-1.117 -1.638,-1.515c-0.351,0.15 -0.1,0.512 -0.128,0.755c-0.125,1.026 -0.19,2.3 -0.442,3.407c-0.079,0.51 -0.184,1.016 -0.314,1.516c-0.15,0.4 -0.512,0.667 -0.569,1.071c-0.032,0.236 0.1,0.53 0.065,0.757c-0.328,0.823 -0.708,1.624 -1.136,2.4c-0.317,0.976 -0.492,1.784 -0.818,2.649c-0.933,-0.642 -0.416,-1.59 -0.319,-2.649c0.037,-0.419 -0.047,-0.883 0,-1.322c0.133,-1.239 0.705,-2.286 0.82,-3.538c0.055,-1.497 -0.03,-2.995 -0.253,-4.476c-0.228,-1.168 -0.678,-2.282 -1.325,-3.28c-0.558,-1.089 -1.469,-1.958 -2.584,-2.464c-0.66,-0.219 -1.336,-0.386 -2.022,-0.5c-0.523,-0.189 -1.029,-0.422 -1.513,-0.695c-0.876,-0.449 -1.864,-0.823 -1.955,-2.08c0.024,-0.6 0.13,-1.195 0.316,-1.766c0.156,-0.56 0.233,-1.162 0.376,-1.642c0.356,-1.2 1.182,-2.24 1.327,-3.281c0.151,-1.1 0,-2.677 -0.758,-3.091c-1.541,-0.833 -3.942,0.343 -4.672,1.259c-0.469,0.709 -0.849,1.472 -1.134,2.273c-0.078,0.224 -0.038,0.52 -0.123,0.761c-0.271,0.715 -0.9,1.385 -1.264,2.145c-0.178,0.369 -0.254,0.773 -0.444,1.134c-0.481,0.908 -1.162,1.922 -1.633,2.906c-0.126,0.24 -0.133,0.571 -0.256,0.815c-0.379,0.745 -1.149,1.337 -1.325,2.208c-1.46,0.466 -3.109,1.548 -5.051,0.692c-1.24,-0.677 -2.421,-1.457 -3.53,-2.333c-0.566,-0.342 -1.094,-0.745 -1.574,-1.2c-0.459,-0.474 -0.713,-1 -1.139,-1.39c-0.426,-0.39 -0.984,-0.542 -1.516,-0.946c-0.406,-0.311 -0.662,-0.778 -1.071,-1.074c-0.354,-0.25 -0.821,-0.371 -1.2,-0.63c-0.59,-0.4 -0.9,-0.883 -1.453,-1.2c-0.616,-0.268 -1.246,-0.5 -1.889,-0.695c-0.356,-0.138 -0.7,-0.4 -1.074,-0.564c-0.408,-0.183 -0.845,-0.234 -1.2,-0.379c-0.705,-0.294 -1.347,-0.825 -2.08,-1.2c-0.739,-0.407 -1.523,-0.727 -2.336,-0.951c-1.791,-1.463 -5.1,-0.768 -7.319,-1.7c-0.313,-0.182 -0.609,-0.392 -0.884,-0.629c-0.728,-0.37 -1.373,-0.886 -1.894,-1.516c-1.342,1.686 -2.474,3.583 -4.162,4.923c-0.54,2.649 -2,4.291 -3.151,6.373c-0.695,1.25 -1.438,2.456 -2.085,3.784c-1.321,0.828 -2.475,1.898 -3.4,3.153c-0.59,1.149 -1.116,2.329 -1.578,3.535c-0.712,1.882 -1.736,3.631 -3.029,5.173c-0.406,0.44 -1.179,1.391 -1.643,1.516c-0.585,0.091 -1.179,0.091 -1.764,0c-1.946,-0.257 -3.771,-1.093 -5.236,-2.4l0,-0.379c0.266,-1.688 1.264,-2.642 2.017,-3.848c-0.73,-0.617 -1.734,-0.961 -1.832,-2.08c-0.036,-1.198 0.668,-2.303 1.769,-2.777c0.821,-0.434 1.9,-0.612 2.587,-0.948c2.426,-2.572 3.839,-6.519 6.308,-9.023c0.168,-0.165 0.53,-0.321 0.382,-0.439c-0.902,0.197 -1.84,-0.148 -2.4,-0.881c-0.178,-1.735 0.535,-3.448 1.892,-4.544c0.356,-0.347 0.788,-0.608 1.262,-0.76c0.183,-0.321 0.128,-0.918 0.316,-1.257c0.789,-1.077 2.065,-1.694 3.4,-1.643c0.833,0.183 1.9,1.814 2.022,2.84c0.153,-0.617 0.595,-0.939 0.692,-1.576c0.071,-0.439 -0.1,-0.936 0,-1.452c0.211,-1.082 1.415,-1.945 1.581,-2.969c0.334,-0.2 0.926,-0.163 1.13,-0.5c-0.783,-2.346 -0.688,-5.55 -0.688,-8.643c0,-5.641 -0.816,-11.846 0.123,-17.227c0.223,-1.262 0.715,-2.55 1.011,-3.849c0.6,-2.67 1.287,-5.294 1.829,-7.946c0.291,-1.438 0.294,-2.933 0.63,-4.291c0.266,-1.061 0.986,-2.564 1.39,-3.784c0.018,-0.044 0.039,-0.086 0.063,-0.127c0.605,-0.973 1.279,-1.901 2.017,-2.778c1.428,-1.94 3.086,-3.309 4.546,-5.111c0.638,-0.96 1.402,-1.829 2.273,-2.584c3.7,-2.607 9.133,-3.809 14.693,-4.228" style="fill:#fff;fill-rule:nonzero;"/><path d="M20.458,184.218l0,-23.2c0.001,-0.01 0.002,-0.019 0.002,-0.029c0,-0.147 -0.12,-0.269 -0.267,-0.271l-4.046,0c-0.171,-0.003 -0.317,0.129 -0.332,0.3l0,9.76l-10.992,0l0,-9.76c0,-0.165 -0.135,-0.3 -0.3,-0.3l-4.012,0c-0.165,0 -0.3,0.135 -0.3,0.3l0,23.2c0,0.165 0.135,0.3 0.3,0.3l4.013,0c0.165,0 0.3,-0.135 0.3,-0.3l0,-9.727l10.991,0l0,9.727c0.015,0.171 0.161,0.303 0.332,0.3l4.046,0c0.147,-0.002 0.267,-0.124 0.267,-0.271c0,-0.01 -0.001,-0.019 -0.002,-0.029m27.457,-11.65c0,-6.707 -4.345,-12.314 -11.982,-12.314c-7.869,0 -11.982,6.071 -11.982,12.314c0.001,6.806 4.378,12.413 11.982,12.413c7.467,0 11.982,-5.806 11.982,-12.414m-12.015,-8.5c4.483,0 7.372,3.321 7.372,8.467c0,5.014 -2.889,8.6 -7.372,8.6c-4.483,0 -7.306,-3.785 -7.306,-8.6c0,-4.715 2.723,-8.467 7.306,-8.467m33.822,12.387l0,-15.437c0,-0.165 -0.135,-0.3 -0.3,-0.3l-3.514,0c-0.171,-0.003 -0.317,0.129 -0.332,0.3l0,15.6c0.004,0.082 0.007,0.164 0.007,0.247c0,2.509 -2.066,4.575 -4.575,4.575c-0.094,0 -0.188,-0.003 -0.281,-0.009c-0.091,0.005 -0.181,0.008 -0.272,0.008c-2.549,0 -4.646,-2.097 -4.646,-4.646c0,-0.058 0.001,-0.117 0.003,-0.175l0,-15.6c0,-0.165 -0.135,-0.3 -0.3,-0.3l-4.012,0c-0.165,0 -0.3,0.135 -0.3,0.3l0,15.47c0,5.178 3.715,8.428 9.525,8.428c5.081,0 8.994,-3.349 8.994,-8.461m21.687,1.361c0.021,-2.312 -1.3,-4.438 -3.383,-5.444c-1.922,-0.987 -3.949,-1.755 -6.043,-2.29c-2.126,-0.631 -4.218,-1.394 -4.218,-3.386c0,-1.761 1.528,-3.091 4.251,-3.091c1.959,0 4.151,0.9 6.175,3.291c0.059,0.066 0.144,0.102 0.232,0.1c0.073,0.009 0.147,-0.015 0.2,-0.066l2.189,-2.36c0.059,-0.05 0.095,-0.123 0.1,-0.2c0,-0.067 -0.066,-0.133 -0.1,-0.2c-2.137,-2.613 -5.39,-4.066 -8.762,-3.914c-5.512,0 -8.53,3.482 -8.53,7.1c-0.028,1.986 0.962,3.854 2.62,4.946c1.726,1.069 3.624,1.833 5.61,2.258c2.358,0.631 5.148,1.56 5.148,3.851c0,1.693 -1.594,3.187 -4.849,3.187c-2.325,0 -4.749,-1.56 -6.374,-3.884c-0.066,-0.066 -0.166,-0.166 -0.265,-0.166c-0.066,0 -0.1,0 -0.133,0.033l-2.687,2.06c-0.1,0.067 -0.1,0.133 -0.1,0.233c-0.009,0.057 0.003,0.116 0.033,0.166c2.062,3.227 5.701,5.114 9.526,4.942c5.479,0 9.359,-2.884 9.359,-7.166m20.552,6.4l0,-2.948c0,-0.165 -0.135,-0.3 -0.3,-0.3l-12.215,0l0,-6.676l6.839,0c0.165,0 0.3,-0.135 0.3,-0.3l0,-2.785c0.003,-0.171 -0.129,-0.317 -0.3,-0.332l-6.839,0l0,-6.577l11.618,0c0.165,0 0.3,-0.135 0.3,-0.3l0,-2.984c0,-0.165 -0.135,-0.3 -0.3,-0.3l-15.929,0c-0.165,0 -0.3,0.135 -0.3,0.3l0,23.2c0,0.165 0.135,0.3 0.3,0.3l16.528,0c0.165,0 0.3,-0.135 0.3,-0.3" style="fill:#fff;fill-rule:nonzero;"/><path d="M12.305,143.75c0,-3.1 -2.206,-5.189 -6.011,-5.189l-6.083,0c0,0 -0.001,0 -0.001,0c-0.115,0 -0.21,0.095 -0.21,0.21c0,0 0,0.001 0,0.001l0,16.416c0,0 0,0.001 0,0.001c0,0.115 0.095,0.21 0.21,0.21c0,0 0.001,0 0.001,0l2.84,0c0,0 0.001,0 0.001,0c0.115,0 0.21,-0.095 0.21,-0.21c0,0 0,-0.001 0,-0.001l0,-6.06l2.82,0c3.9,0 6.223,-2.017 6.223,-5.377m-3.5,0.141c0.007,0.08 0.01,0.16 0.01,0.24c0,1.552 -1.277,2.83 -2.83,2.83c-0.093,0 -0.187,-0.005 -0.28,-0.014l-2.443,0l0,-6.039l2.468,0c0.085,-0.008 0.171,-0.012 0.257,-0.012c1.551,0 2.827,1.276 2.827,2.827c0,0.057 -0.002,0.113 -0.005,0.169m18.948,11.318c0.003,-0.033 -0.005,-0.066 -0.024,-0.094l-6.059,-16.416c-0.033,-0.077 -0.105,-0.131 -0.188,-0.141l-3.242,0c-0.083,0.01 -0.155,0.064 -0.188,0.141l-6.224,16.415c-0.018,0.028 -0.026,0.061 -0.023,0.094c0,0.117 0.094,0.188 0.235,0.188l2.49,0c0.083,-0.01 0.155,-0.064 0.188,-0.141l1.644,-4.416l6.224,0l1.6,4.416c0.043,0.079 0.122,0.132 0.212,0.141l3.124,0c0.141,0 0.235,-0.071 0.235,-0.188m-5.872,-6.621l-4.772,0l2.4,-6.67l2.372,6.67Zm22,6.6l0,-16.417c-0.011,-0.12 -0.114,-0.213 -0.235,-0.211l-2.3,0c0,0 -0.001,0 -0.001,0c-0.115,0 -0.21,0.095 -0.21,0.21c0,0 0,0.001 0,0.001l0,11.7l-0.043,0l-8.156,-11.771c-0.052,-0.081 -0.139,-0.133 -0.235,-0.141l-3,0c0,0 -0.001,0 -0.001,0c-0.115,0 -0.21,0.095 -0.21,0.21c0,0 0,0.001 0,0.001l0,16.416c0,0 0,0.001 0,0.001c0,0.115 0.095,0.21 0.21,0.21c0,0 0.001,0 0.001,0l2.291,0c0,0 0.001,0 0.001,0c0.115,0 0.21,-0.095 0.21,-0.21c0,0 0,-0.001 0,-0.001l0,-12l0.024,0l8.465,12.094c0.049,0.069 0.126,0.113 0.211,0.118l2.745,0c0.121,0.002 0.224,-0.091 0.235,-0.211m21.391,0l0,-16.416c0,-0.116 -0.095,-0.211 -0.211,-0.211l-3.617,0c-0.08,0.018 -0.148,0.07 -0.188,0.141c-1.668,4.063 -3.313,8.126 -4.981,12.165l-0.024,0l-5.05,-12.166c-0.04,-0.071 -0.108,-0.122 -0.188,-0.141l-3.686,0c0,0 -0.001,0 -0.001,0c-0.115,0 -0.21,0.095 -0.21,0.21c0,0 0,0.001 0,0.001l0,16.416c0,0 0,0.001 0,0.001c0,0.115 0.095,0.21 0.21,0.21c0,0 0.001,0 0.001,0l2.276,0c0.116,0 0.211,-0.095 0.211,-0.211l0,-12.4l5.145,12.47c0.025,0.083 0.102,0.14 0.188,0.141l1.573,0c0.091,-0.005 0.172,-0.059 0.212,-0.141l5.051,-12.494l0.023,0l0,12.423c0.011,0.12 0.114,0.213 0.235,0.211l2.816,0c0.116,0 0.211,-0.095 0.211,-0.211m16.322,-5.492l0,-10.922c0,0 0,-0.001 0,-0.001c0,-0.115 -0.095,-0.21 -0.21,-0.21c0,0 -0.001,0 -0.001,0l-2.489,0c-0.121,-0.002 -0.224,0.091 -0.235,0.211l0,11.04c0.003,0.058 0.005,0.117 0.005,0.175c0,1.776 -1.461,3.237 -3.237,3.237c-0.067,0 -0.133,-0.002 -0.199,-0.006c-0.063,0.004 -0.126,0.005 -0.189,0.005c-1.804,0 -3.287,-1.483 -3.287,-3.287c0,-0.041 0,-0.083 0.002,-0.125l0,-11.04c0,-0.116 -0.095,-0.211 -0.211,-0.211l-2.839,0c0,0 -0.001,0 -0.001,0c-0.116,0 -0.211,0.095 -0.211,0.211l0,10.946c0,3.664 2.629,5.963 6.74,5.963c3.6,0 6.364,-2.37 6.364,-5.986m16.58,5.517c-0.001,-0.051 -0.018,-0.1 -0.047,-0.141l-5,-7.046c2.186,-0.448 3.767,-2.395 3.756,-4.627c0,-2.772 -2.135,-4.837 -5.448,-4.837l-6.435,0c-0.116,0 -0.211,0.095 -0.211,0.211l0,16.416c0,0.116 0.095,0.211 0.211,0.211l2.745,0c0.104,-0.002 0.189,-0.088 0.189,-0.192c0,-0.006 0,-0.013 -0.001,-0.019l0,-6.342l2.3,0l4.416,6.46c0.063,0.045 0.135,0.077 0.211,0.094l3.1,0c0.006,0.001 0.013,0.001 0.019,0.001c0.104,0 0.19,-0.085 0.192,-0.189m-4.645,-11.414c0.004,0.058 0.005,0.116 0.005,0.173c0,1.511 -1.242,2.753 -2.753,2.753c-0.087,0 -0.173,-0.004 -0.26,-0.012l-2.585,0l0,-5.757l2.609,0c0.086,-0.008 0.172,-0.012 0.259,-0.012c1.497,0 2.729,1.232 2.729,2.729c0,0.042 -0.001,0.084 -0.003,0.126m18.424,11.391l0,-2.088c0,-0.116 -0.095,-0.211 -0.211,-0.211c0,0 -0.001,0 -0.001,0l-8.647,0l0,-4.724l4.838,0c0,0 0.001,0 0.001,0c0.115,0 0.21,-0.095 0.21,-0.21c0,0 0,-0.001 0,-0.001l0,-1.973c0.002,-0.121 -0.091,-0.224 -0.211,-0.234l-4.838,0l0,-4.654l8.22,0c0.001,0 0.001,0 0.002,0c0.115,0 0.21,-0.095 0.21,-0.21c0,0 0,-0.001 0,-0.001l0,-2.111c0,-0.116 -0.095,-0.211 -0.211,-0.211c0,0 -0.001,0 -0.001,0l-11.268,0c0,0 -0.001,0 -0.001,0c-0.115,0 -0.21,0.095 -0.21,0.21c0,0 0,0.001 0,0.001l0,16.416c0,0 0,0.001 0,0.001c0,0.115 0.095,0.21 0.21,0.21c0,0 0.001,0 0.001,0l11.694,0c0,0 0.001,0 0.001,0c0.116,0 0.211,-0.095 0.211,-0.211c0,0 0,0 0,0" style="fill:#fff;fill-rule:nonzero;"/><path d="M11.866,121.056c0.003,-0.025 -0.003,-0.05 -0.017,-0.07l-4.509,-12.213c-0.026,-0.055 -0.079,-0.093 -0.14,-0.1l-2.412,0c-0.061,0.006 -0.114,0.044 -0.14,0.1l-4.63,12.213c-0.014,0.021 -0.02,0.045 -0.017,0.07c0,0.088 0.069,0.14 0.174,0.14l1.852,0c0.061,-0.006 0.114,-0.044 0.14,-0.1l1.223,-3.29l4.631,0l1.188,3.285c0.033,0.057 0.092,0.095 0.158,0.1l2.324,0c0.105,0 0.175,-0.052 0.175,-0.14m-4.366,-4.921l-3.55,0l1.782,-4.962l1.768,4.962Zm16.49,-1.329c0,-2.954 -1.729,-6.132 -6.185,-6.132l-4.49,0c0,0 -0.001,0 -0.001,0c-0.086,0 -0.157,0.071 -0.157,0.157l0,12.213c0,0.086 0.071,0.157 0.157,0.157c0,0 0.001,0 0.001,0l4.49,0c4.125,0 6.185,-2.969 6.185,-6.395m-2.532,0c0,2.988 -1.591,4.545 -3.793,4.545l-2.165,0l0,-8.81l2.27,0c2.2,0 3.688,1.626 3.688,4.265m14.642,6.255c0.003,-0.025 -0.003,-0.05 -0.018,-0.07l-4.507,-12.213c-0.026,-0.056 -0.079,-0.094 -0.14,-0.1l-2.411,0c-0.061,0.006 -0.114,0.044 -0.14,0.1l-4.631,12.213c-0.014,0.02 -0.02,0.045 -0.017,0.07c0,0.088 0.069,0.14 0.174,0.14l1.852,0c0.061,-0.006 0.114,-0.044 0.14,-0.1l1.223,-3.285l4.631,0l1.188,3.285c0.033,0.057 0.092,0.095 0.158,0.1l2.324,0c0.105,0 0.175,-0.052 0.175,-0.14m-4.369,-4.926l-3.547,0l1.782,-4.962l1.765,4.962Zm19.176,4.909l0,-12.214c0,0 0,-0.001 0,-0.001c0,-0.086 -0.07,-0.156 -0.156,-0.156c0,0 -0.001,0 -0.001,0l-2.689,0c-0.058,0.013 -0.109,0.049 -0.14,0.1c-1.241,3.023 -2.465,6.046 -3.705,9.051l-0.017,0l-3.758,-9.051c-0.031,-0.051 -0.082,-0.087 -0.14,-0.1l-2.743,0c0,0 -0.001,0 -0.001,0c-0.086,0 -0.156,0.07 -0.156,0.156c0,0 0,0.001 0,0.001l0,12.213c0,0.086 0.071,0.157 0.157,0.157l1.694,0c0,0 0.001,0 0.001,0c0.086,0 0.156,-0.07 0.156,-0.156c0,0 0,-0.001 0,-0.001l0,-9.225l3.828,9.278c0.02,0.06 0.077,0.101 0.14,0.1l1.171,0c0.066,-0.003 0.126,-0.041 0.157,-0.1l3.758,-9.295l0.017,0l0,9.242c0.008,0.089 0.084,0.158 0.174,0.157l2.1,0c0.086,0 0.157,-0.071 0.157,-0.157m16.181,-3.37c0.011,-1.217 -0.685,-2.337 -1.781,-2.866c-1.012,-0.52 -2.079,-0.924 -3.181,-1.206c-1.119,-0.332 -2.22,-0.734 -2.22,-1.782c0,-0.927 0.8,-1.627 2.238,-1.627c1.289,0.056 2.485,0.693 3.251,1.731c0.031,0.035 0.076,0.054 0.122,0.053c0.037,0.004 0.073,-0.009 0.1,-0.035l1.152,-1.242c0.029,-0.025 0.048,-0.061 0.052,-0.1c0,-0.035 -0.035,-0.07 -0.052,-0.105c-1.125,-1.375 -2.837,-2.14 -4.612,-2.06c-2.9,0 -4.49,1.832 -4.49,3.739c-0.013,1.044 0.507,2.025 1.379,2.6c0.909,0.563 1.908,0.965 2.953,1.188c1.241,0.332 2.71,0.822 2.71,2.027c0,0.891 -0.839,1.677 -2.553,1.677c-1.377,-0.113 -2.623,-0.872 -3.355,-2.044c-0.035,-0.035 -0.087,-0.088 -0.14,-0.088c-0.035,0 -0.053,0 -0.07,0.018l-1.415,1.083c-0.053,0.035 -0.053,0.07 -0.053,0.123c-0.004,0.03 0.002,0.061 0.018,0.087c1.086,1.698 3.001,2.691 5.014,2.6c2.884,0 4.927,-1.518 4.927,-3.772m15.318,3.37l0,-12.212c0,0 0,-0.001 0,-0.001c0,-0.086 -0.07,-0.156 -0.156,-0.156c0,0 -0.001,0 -0.001,0l-2.686,0c-0.058,0.013 -0.109,0.049 -0.14,0.1c-1.241,3.023 -2.465,6.046 -3.706,9.051l-0.016,0l-3.758,-9.051c-0.031,-0.051 -0.082,-0.087 -0.14,-0.1l-2.743,0c0,0 -0.001,0 -0.001,0c-0.086,0 -0.156,0.07 -0.156,0.156c0,0 0,0.001 0,0.001l0,12.213c0,0.086 0.071,0.157 0.157,0.157l1.693,0c0.086,0 0.157,-0.071 0.157,-0.157l0,-9.225l3.828,9.278c0.02,0.06 0.076,0.1 0.139,0.1l1.172,0c0.066,-0.003 0.127,-0.041 0.157,-0.1l3.758,-9.295l0.017,0l0,9.242c0.008,0.09 0.085,0.159 0.175,0.157l2.1,0c0,0 0.001,0 0.001,0c0.086,0 0.156,-0.07 0.156,-0.156c0,0 0,-0.001 0,-0.001m4.9,0l0,-12.213c-0.008,-0.089 -0.084,-0.158 -0.174,-0.157l-2.121,0c0,0 -0.001,0 -0.001,0c-0.086,0 -0.157,0.071 -0.157,0.157l0,12.213c0,0.086 0.071,0.157 0.157,0.157c0,0 0.001,0 0.001,0l2.113,0c0.09,0.001 0.166,-0.068 0.174,-0.157m12.615,-10.467l0,-1.746c0,0 0,-0.001 0,-0.001c0,-0.086 -0.07,-0.156 -0.156,-0.156c0,0 -0.001,0 -0.001,0l-10.92,0c-0.09,-0.002 -0.167,0.067 -0.175,0.157l0,1.746c0.008,0.09 0.085,0.158 0.175,0.157l4.264,0l0,10.31c0.008,0.09 0.085,0.159 0.175,0.157l2.1,0c0.09,0.002 0.167,-0.067 0.175,-0.157l0,-10.31l4.212,0c0,0 0.001,0 0.001,0c0.086,0 0.156,-0.07 0.156,-0.156c0,0 0,-0.001 0,-0.001m12.039,10.467l0,-12.212c0,-0.005 0.001,-0.009 0.001,-0.014c0,-0.078 -0.063,-0.142 -0.141,-0.143l-2.13,0c-0.09,-0.001 -0.167,0.067 -0.175,0.157l0,5.138l-5.786,0l0,-5.138c0,0 0,-0.001 0,-0.001c0,-0.086 -0.07,-0.156 -0.156,-0.156c0,0 -0.001,0 -0.001,0l-2.113,0c0,0 -0.001,0 -0.001,0c-0.086,0 -0.156,0.07 -0.156,0.156c0,0 0,0.001 0,0.001l0,12.213c0,0.086 0.071,0.157 0.157,0.157l2.113,0c0.086,0 0.157,-0.071 0.157,-0.157l0,-5.12l5.786,0l0,5.12c0.008,0.09 0.085,0.158 0.175,0.157l2.13,0c0.078,-0.001 0.141,-0.065 0.141,-0.143c0,-0.005 -0.001,-0.009 -0.001,-0.014" style="fill:#fff;fill-rule:nonzero;"/><rect x="0" y="128.664" width="111.957" height="2.279" style="fill:#d0870a;"/></g></g></svg>